# Blender 5.0.1
# www.blender.org
mtllib quadro.mtl
o quadro
v 17.950216 1.179742 -3.367841
v 17.950216 1.179742 -7.495845
v 17.950216 3.979742 -3.367841
v 17.950216 3.979742 -7.495845
v 18.030218 1.179742 -3.367841
v 18.030218 1.179742 -7.495845
v 18.030218 3.979742 -3.367841
v 18.030218 3.979742 -7.495845
v 18.038937 3.945748 -7.441838
v 18.038937 3.945748 -3.313834
v 18.038937 1.145747 -3.313834
v 18.038937 1.145748 -7.441838
vn -1.0000 -0.0000 -0.0000
vn -0.0000 1.0000 -0.0000
vn 0.9872 -0.0000 -0.1594
vn -0.0000 -1.0000 -0.0000
vn -0.0000 -0.0000 1.0000
vn -0.0000 -0.0000 -1.0000
vn 1.0000 -0.0000 -0.0000
vn 0.9686 0.2485 -0.0000
vn -0.9686 -0.2485 -0.0000
vn -0.9872 -0.0000 0.1594
vt 0.625000 0.000000
vt 0.375000 0.250000
vt 0.375000 0.000000
vt 0.625000 0.250000
vt 0.375000 0.500000
vt 0.625000 0.750000
vt 0.625000 0.500000
vt 0.375000 1.000000
vt 0.375000 0.750000
vt 0.125000 0.750000
vt 0.125000 0.500000
vt 0.875000 0.500000
vt 1.000000 0.000000
vt 0.000000 1.000000
vt 0.000000 0.000000
vt 0.625000 1.000000
vt 0.875000 0.750000
vt 1.000000 1.000000
s 0
usemtl Materiais
f 2/1/1 1/3/1 3/2/1
f 4/4/2 3/2/2 7/5/2
f 6/6/3 8/7/3 9/7/3
f 6/6/4 5/9/4 1/8/4
f 7/5/5 3/11/5 1/10/5
f 4/12/6 8/7/6 6/6/6
f 9/13/7 10/15/7 11/14/7
f 7/5/8 10/5/8 9/7/8
f 5/9/9 6/6/9 12/6/9
f 5/9/10 11/9/10 10/5/10
f 2/1/1 3/2/1 4/4/1
f 4/4/2 7/5/2 8/7/2
f 6/6/3 9/7/3 12/6/3
f 6/6/4 1/8/4 2/16/4
f 7/5/5 1/10/5 5/9/5
f 4/12/6 6/6/6 2/17/6
f 9/13/7 11/14/7 12/18/7
f 7/5/8 9/7/8 8/7/8
f 5/9/9 12/6/9 11/9/9
f 5/9/10 10/5/10 7/5/10
